<svg aria-roledescription="er" viewBox="0 0 463.265625 298.3671875" style="max-width: 463.266px; background-color: white;" xmlns:xlink="http://www.w3.org/1999/xlink" xmlns="http://www.w3.org/2000/svg" width="100%" id="mermaid-0"><style>#mermaid-0{font-family:"trebuchet ms",verdana,arial,sans-serif;font-size:16px;fill:#000000;}#mermaid-0 .error-icon{fill:#552222;}#mermaid-0 .error-text{fill:#552222;stroke:#552222;}#mermaid-0 .edge-thickness-normal{stroke-width:2px;}#mermaid-0 .edge-thickness-thick{stroke-width:3.5px;}#mermaid-0 .edge-pattern-solid{stroke-dasharray:0;}#mermaid-0 .edge-pattern-dashed{stroke-dasharray:3;}#mermaid-0 .edge-pattern-dotted{stroke-dasharray:2;}#mermaid-0 .marker{fill:#000000;stroke:#000000;}#mermaid-0 .marker.cross{stroke:#000000;}#mermaid-0 svg{font-family:"trebuchet ms",verdana,arial,sans-serif;font-size:16px;}#mermaid-0 .entityBox{fill:#cde498;stroke:#13540c;}#mermaid-0 .attributeBoxOdd{fill:#ffffff;stroke:#13540c;}#mermaid-0 .attributeBoxEven{fill:#f2f2f2;stroke:#13540c;}#mermaid-0 .relationshipLabelBox{fill:hsl(78.1578947368, 58.4615384615%, 84.5098039216%);opacity:0.7;background-color:hsl(78.1578947368, 58.4615384615%, 84.5098039216%);}#mermaid-0 .relationshipLabelBox rect{opacity:0.5;}#mermaid-0 .relationshipLine{stroke:#000000;}#mermaid-0 .entityTitleText{text-anchor:middle;font-size:18px;fill:#000000;}#mermaid-0 :root{--mermaid-font-family:"trebuchet ms",verdana,arial,sans-serif;}</style><g/><defs><marker orient="auto" markerHeight="18" markerWidth="18" refY="9" refX="0" id="ONLY_ONE_START"><path d="M9,0 L9,18 M15,0 L15,18" fill="none" stroke="gray"/></marker></defs><defs><marker orient="auto" markerHeight="18" markerWidth="18" refY="9" refX="18" id="ONLY_ONE_END"><path d="M3,0 L3,18 M9,0 L9,18" fill="none" stroke="gray"/></marker></defs><defs><marker orient="auto" markerHeight="18" markerWidth="30" refY="9" refX="0" id="ZERO_OR_ONE_START"><circle r="6" cy="9" cx="21" fill="white" stroke="gray"/><path d="M9,0 L9,18" fill="none" stroke="gray"/></marker></defs><defs><marker orient="auto" markerHeight="18" markerWidth="30" refY="9" refX="30" id="ZERO_OR_ONE_END"><circle r="6" cy="9" cx="9" fill="white" stroke="gray"/><path d="M21,0 L21,18" fill="none" stroke="gray"/></marker></defs><defs><marker orient="auto" markerHeight="36" markerWidth="45" refY="18" refX="18" id="ONE_OR_MORE_START"><path d="M0,18 Q 18,0 36,18 Q 18,36 0,18 M42,9 L42,27" fill="none" stroke="gray"/></marker></defs><defs><marker orient="auto" markerHeight="36" markerWidth="45" refY="18" refX="27" id="ONE_OR_MORE_END"><path d="M3,9 L3,27 M9,18 Q27,0 45,18 Q27,36 9,18" fill="none" stroke="gray"/></marker></defs><defs><marker orient="auto" markerHeight="36" markerWidth="57" refY="18" refX="18" id="ZERO_OR_MORE_START"><circle r="6" cy="18" cx="48" fill="white" stroke="gray"/><path d="M0,18 Q18,0 36,18 Q18,36 0,18" fill="none" stroke="gray"/></marker></defs><defs><marker orient="auto" markerHeight="36" markerWidth="57" refY="18" refX="39" id="ZERO_OR_MORE_END"><circle r="6" cy="18" cx="9" fill="white" stroke="gray"/><path d="M21,18 Q39,0 57,18 Q39,36 21,18" fill="none" stroke="gray"/></marker></defs><path style="stroke: gray; fill: none;" marker-start="url(#ZERO_OR_MORE_START)" marker-end="url(#ONLY_ONE_END)" d="M76.6953125,88.18359375L76.6953125,96.51692708333333C76.6953125,104.85026041666667,76.6953125,121.51692708333333,81.07704342064274,138.18359375C85.45877434128549,154.85026041666666,94.22223618257097,171.51692708333334,98.60396710321373,179.85026041666666L102.98569802385647,188.18359375" class="er relationshipLine"/><path style="stroke: gray; fill: none;" marker-start="url(#ZERO_OR_MORE_START)" marker-end="url(#ONLY_ONE_END)" d="M354.0231344718964,77.1376953125L360.07266414324704,87.31201171875C366.12219381459755,97.486328125,378.2212531572988,117.8349609375,384.2707828286494,138.18359375C390.3203125,158.5322265625,390.3203125,178.880859375,390.3203125,189.05517578125L390.3203125,199.2294921875" class="er relationshipLine"/><path style="stroke: gray; fill: none;" marker-start="url(#ZERO_OR_MORE_START)" marker-end="url(#ONLY_ONE_END)" d="M310.09809632120255,77.1376953125L296.75557505933546,87.31201171875C283.41305379746836,97.486328125,256.7280112737342,117.8349609375,234.32865759253545,136.34261067708334C211.9293039113367,154.85026041666666,193.8156390726734,171.51692708333334,184.75880665334174,179.85026041666666L175.7019742340101,188.18359375" class="er relationshipLine"/><g transform="translate(59.0859375,188.18359375 )" id="entity-habits-aa9c3869-199e-467c-a92d-ffb467ca8960"><rect height="90.18359375" width="135.21875" y="0" x="0" class="er entityBox"/><text style="dominant-baseline: middle; text-anchor: middle; font-size: 12px;" transform="translate(67.609375,12)" y="0" x="0" id="text-entity-habits-aa9c3869-199e-467c-a92d-ffb467ca8960" class="er entityLabel">habits</text><rect height="22.091796875" width="53.671875" y="24" x="0" class="er attributeBoxOdd"/><text style="dominant-baseline: middle; font-size: 10.2px;" transform="translate(5,35.0458984375)" y="0" x="0" id="text-entity-habits-aa9c3869-199e-467c-a92d-ffb467ca8960-attr-1-type" class="er entityLabel">String</text><rect height="22.091796875" width="59.984375" y="24" x="53.671875" class="er attributeBoxOdd"/><text style="dominant-baseline: middle; font-size: 10.2px;" transform="translate(58.671875,35.0458984375)" y="0" x="0" id="text-entity-habits-aa9c3869-199e-467c-a92d-ffb467ca8960-attr-1-name" class="er entityLabel">id</text><rect height="22.091796875" width="21.5625" y="24" x="113.65625" class="er attributeBoxOdd"/><text style="dominant-baseline: middle; font-size: 10.2px;" transform="translate(118.65625,35.0458984375)" y="0" x="0" id="text-entity-habits-aa9c3869-199e-467c-a92d-ffb467ca8960-attr-1-key" class="er entityLabel">PK</text><rect height="22.091796875" width="53.671875" y="46.091796875" x="0" class="er attributeBoxEven"/><text style="dominant-baseline: middle; font-size: 10.2px;" transform="translate(5,57.1376953125)" y="0" x="0" id="text-entity-habits-aa9c3869-199e-467c-a92d-ffb467ca8960-attr-2-type" class="er entityLabel">String</text><rect height="22.091796875" width="59.984375" y="46.091796875" x="53.671875" class="er attributeBoxEven"/><text style="dominant-baseline: middle; font-size: 10.2px;" transform="translate(58.671875,57.1376953125)" y="0" x="0" id="text-entity-habits-aa9c3869-199e-467c-a92d-ffb467ca8960-attr-2-name" class="er entityLabel">title</text><rect height="22.091796875" width="21.5625" y="46.091796875" x="113.65625" class="er attributeBoxEven"/><text style="dominant-baseline: middle; font-size: 10.2px;" transform="translate(118.65625,57.1376953125)" y="0" x="0" id="text-entity-habits-aa9c3869-199e-467c-a92d-ffb467ca8960-attr-2-key" class="er entityLabel"/><rect height="22" width="53.671875" y="68.18359375" x="0" class="er attributeBoxOdd"/><text style="dominant-baseline: middle; font-size: 10.2px;" transform="translate(5,79.18359375)" y="0" x="0" id="text-entity-habits-aa9c3869-199e-467c-a92d-ffb467ca8960-attr-3-type" class="er entityLabel">DateTime</text><rect height="22" width="59.984375" y="68.18359375" x="53.671875" class="er attributeBoxOdd"/><text style="dominant-baseline: middle; font-size: 10.2px;" transform="translate(58.671875,79.18359375)" y="0" x="0" id="text-entity-habits-aa9c3869-199e-467c-a92d-ffb467ca8960-attr-3-name" class="er entityLabel">created_at</text><rect height="22" width="21.5625" y="68.18359375" x="113.65625" class="er attributeBoxOdd"/><text style="dominant-baseline: middle; font-size: 10.2px;" transform="translate(118.65625,79.18359375)" y="0" x="0" id="text-entity-habits-aa9c3869-199e-467c-a92d-ffb467ca8960-attr-3-key" class="er entityLabel"/></g><g transform="translate(20,20 )" id="entity-HabitWeekDays-bd28eab3-b16d-424e-a286-d1d4bb0abfe7"><rect height="68.18359375" width="113.390625" y="0" x="0" class="er entityBox"/><text style="dominant-baseline: middle; text-anchor: middle; font-size: 12px;" transform="translate(56.6953125,12)" y="0" x="0" id="text-entity-HabitWeekDays-bd28eab3-b16d-424e-a286-d1d4bb0abfe7" class="er entityLabel">HabitWeekDays</text><rect height="22.091796875" width="36.53125" y="24" x="0" class="er attributeBoxOdd"/><text style="dominant-baseline: middle; font-size: 10.2px;" transform="translate(5,35.0458984375)" y="0" x="0" id="text-entity-HabitWeekDays-bd28eab3-b16d-424e-a286-d1d4bb0abfe7-attr-1-type" class="er entityLabel">String</text><rect height="22.091796875" width="55.296875" y="24" x="36.53125" class="er attributeBoxOdd"/><text style="dominant-baseline: middle; font-size: 10.2px;" transform="translate(41.53125,35.0458984375)" y="0" x="0" id="text-entity-HabitWeekDays-bd28eab3-b16d-424e-a286-d1d4bb0abfe7-attr-1-name" class="er entityLabel">id</text><rect height="22.091796875" width="21.5625" y="24" x="91.828125" class="er attributeBoxOdd"/><text style="dominant-baseline: middle; font-size: 10.2px;" transform="translate(96.828125,35.0458984375)" y="0" x="0" id="text-entity-HabitWeekDays-bd28eab3-b16d-424e-a286-d1d4bb0abfe7-attr-1-key" class="er entityLabel">PK</text><rect height="22.091796875" width="36.53125" y="46.091796875" x="0" class="er attributeBoxEven"/><text style="dominant-baseline: middle; font-size: 10.2px;" transform="translate(5,57.1376953125)" y="0" x="0" id="text-entity-HabitWeekDays-bd28eab3-b16d-424e-a286-d1d4bb0abfe7-attr-2-type" class="er entityLabel">Int</text><rect height="22.091796875" width="55.296875" y="46.091796875" x="36.53125" class="er attributeBoxEven"/><text style="dominant-baseline: middle; font-size: 10.2px;" transform="translate(41.53125,57.1376953125)" y="0" x="0" id="text-entity-HabitWeekDays-bd28eab3-b16d-424e-a286-d1d4bb0abfe7-attr-2-name" class="er entityLabel">week_day</text><rect height="22.091796875" width="21.5625" y="46.091796875" x="91.828125" class="er attributeBoxEven"/><text style="dominant-baseline: middle; font-size: 10.2px;" transform="translate(96.828125,57.1376953125)" y="0" x="0" id="text-entity-HabitWeekDays-bd28eab3-b16d-424e-a286-d1d4bb0abfe7-attr-2-key" class="er entityLabel"/></g><g transform="translate(337.375,199.2294921875 )" id="entity-days-693bbef3-72af-4bae-afac-ce9acc06296b"><rect height="68.091796875" width="105.890625" y="0" x="0" class="er entityBox"/><text style="dominant-baseline: middle; text-anchor: middle; font-size: 12px;" transform="translate(52.9453125,12)" y="0" x="0" id="text-entity-days-693bbef3-72af-4bae-afac-ce9acc06296b" class="er entityLabel">days</text><rect height="22.091796875" width="53.671875" y="24" x="0" class="er attributeBoxOdd"/><text style="dominant-baseline: middle; font-size: 10.2px;" transform="translate(5,35.0458984375)" y="0" x="0" id="text-entity-days-693bbef3-72af-4bae-afac-ce9acc06296b-attr-1-type" class="er entityLabel">String</text><rect height="22.091796875" width="30.65625" y="24" x="53.671875" class="er attributeBoxOdd"/><text style="dominant-baseline: middle; font-size: 10.2px;" transform="translate(58.671875,35.0458984375)" y="0" x="0" id="text-entity-days-693bbef3-72af-4bae-afac-ce9acc06296b-attr-1-name" class="er entityLabel">id</text><rect height="22.091796875" width="21.5625" y="24" x="84.328125" class="er attributeBoxOdd"/><text style="dominant-baseline: middle; font-size: 10.2px;" transform="translate(89.328125,35.0458984375)" y="0" x="0" id="text-entity-days-693bbef3-72af-4bae-afac-ce9acc06296b-attr-1-key" class="er entityLabel">PK</text><rect height="22" width="53.671875" y="46.091796875" x="0" class="er attributeBoxEven"/><text style="dominant-baseline: middle; font-size: 10.2px;" transform="translate(5,57.091796875)" y="0" x="0" id="text-entity-days-693bbef3-72af-4bae-afac-ce9acc06296b-attr-2-type" class="er entityLabel">DateTime</text><rect height="22" width="30.65625" y="46.091796875" x="53.671875" class="er attributeBoxEven"/><text style="dominant-baseline: middle; font-size: 10.2px;" transform="translate(58.671875,57.091796875)" y="0" x="0" id="text-entity-days-693bbef3-72af-4bae-afac-ce9acc06296b-attr-2-name" class="er entityLabel">date</text><rect height="22" width="21.5625" y="46.091796875" x="84.328125" class="er attributeBoxEven"/><text style="dominant-baseline: middle; font-size: 10.2px;" transform="translate(89.328125,57.091796875)" y="0" x="0" id="text-entity-days-693bbef3-72af-4bae-afac-ce9acc06296b-attr-2-key" class="er entityLabel"/></g><g transform="translate(290.3203125,31.0458984375 )" id="entity-dayhabits-c0f5f068-d8a3-44f7-8756-63380aabf6e8"><rect height="46.091796875" width="100" y="0" x="0" class="er entityBox"/><text style="dominant-baseline: middle; text-anchor: middle; font-size: 12px;" transform="translate(50,12)" y="0" x="0" id="text-entity-dayhabits-c0f5f068-d8a3-44f7-8756-63380aabf6e8" class="er entityLabel">day_habits</text><rect height="22.091796875" width="44.302083333333336" y="24" x="0" class="er attributeBoxOdd"/><text style="dominant-baseline: middle; font-size: 10.2px;" transform="translate(5,35.0458984375)" y="0" x="0" id="text-entity-dayhabits-c0f5f068-d8a3-44f7-8756-63380aabf6e8-attr-1-type" class="er entityLabel">String</text><rect height="22.091796875" width="26.364583333333332" y="24" x="44.302083333333336" class="er attributeBoxOdd"/><text style="dominant-baseline: middle; font-size: 10.2px;" transform="translate(49.302083333333336,35.0458984375)" y="0" x="0" id="text-entity-dayhabits-c0f5f068-d8a3-44f7-8756-63380aabf6e8-attr-1-name" class="er entityLabel">id</text><rect height="22.091796875" width="29.333333333333332" y="24" x="70.66666666666667" class="er attributeBoxOdd"/><text style="dominant-baseline: middle; font-size: 10.2px;" transform="translate(75.66666666666667,35.0458984375)" y="0" x="0" id="text-entity-dayhabits-c0f5f068-d8a3-44f7-8756-63380aabf6e8-attr-1-key" class="er entityLabel">PK</text></g><rect height="14" width="27.734375" y="133.2885284423828" x="67.78624725341797" class="er relationshipLabelBox"/><text style="text-anchor: middle; dominant-baseline: middle; font-size: 12px;" y="140.2885284423828" x="81.65343475341797" id="rel1" class="er relationshipLabel">habit</text><rect height="14" width="18.921875" y="127.97573852539062" x="373.8070983886719" class="er relationshipLabelBox"/><text style="text-anchor: middle; dominant-baseline: middle; font-size: 12px;" y="134.97573852539062" x="383.2680358886719" id="rel2" class="er relationshipLabel">day</text><rect height="14" width="27.734375" y="123.67416381835938" x="227.3828887939453" class="er relationshipLabelBox"/><text style="text-anchor: middle; dominant-baseline: middle; font-size: 12px;" y="130.67416381835938" x="241.2500762939453" id="rel3" class="er relationshipLabel">habit</text></svg>